<svg xmlns="http://www.w3.org/2000/svg" xmlns:xlink="http://www.w3.org/1999/xlink" viewBox="0 0 142.32 18.79"><defs><style>.cls-1{fill:none;}.cls-2{clip-path:url(#clip-path);}.cls-3{fill:#ed2024;}</style><clipPath id="clip-path" transform="translate(-0.02 -0.32)"><rect class="cls-1" width="143" height="19.64"/></clipPath></defs><g id="Layer_2" data-name="Layer 2"><g id="Layer_1-2" data-name="Layer 1"><g class="cls-2"><path class="cls-3" d="M15.31.57V18.86H12L4,7.35H3.88V18.86H0V.57H3.41l7.89,11.5h.16V.57Zm20,9.14a10.63,10.63,0,0,1-1.13,5.09A7.88,7.88,0,0,1,31.1,18a9.17,9.17,0,0,1-8.73,0,7.9,7.9,0,0,1-3.06-3.21,10.59,10.59,0,0,1-1.12-5.08,10.59,10.59,0,0,1,1.12-5.08,7.82,7.82,0,0,1,3.06-3.2,9.14,9.14,0,0,1,8.73,0,7.8,7.8,0,0,1,3.08,3.2A10.59,10.59,0,0,1,35.31,9.71Zm-3.92,0a8.06,8.06,0,0,0-.58-3.26,4.4,4.4,0,0,0-1.62-2,4.68,4.68,0,0,0-4.89,0,4.4,4.4,0,0,0-1.62,2,8.23,8.23,0,0,0-.58,3.26A8.25,8.25,0,0,0,22.68,13a4.4,4.4,0,0,0,1.62,2,4.68,4.68,0,0,0,4.89,0,4.4,4.4,0,0,0,1.62-2A8.08,8.08,0,0,0,31.39,9.71Zm16.7-3.88a2.23,2.23,0,0,0-.92-1.68,3.61,3.61,0,0,0-2.2-.6,4.21,4.21,0,0,0-1.6.27,2.31,2.31,0,0,0-1,.72A1.74,1.74,0,0,0,42,5.6a1.53,1.53,0,0,0,.21.86,2.1,2.1,0,0,0,.63.63,5,5,0,0,0,.93.45,9.15,9.15,0,0,0,1.12.33l1.65.39A12.22,12.22,0,0,1,48.76,9a6.89,6.89,0,0,1,1.74,1.1,4.76,4.76,0,0,1,1.13,1.54,5,5,0,0,1,.42,2,5,5,0,0,1-.86,2.91,5.48,5.48,0,0,1-2.43,1.91,9.84,9.84,0,0,1-3.81.67,10.12,10.12,0,0,1-3.86-.68,5.59,5.59,0,0,1-2.55-2,6,6,0,0,1-1-3.31h3.75a2.77,2.77,0,0,0,.52,1.53,3,3,0,0,0,1.26.92,5.07,5.07,0,0,0,1.8.31,4.62,4.62,0,0,0,1.7-.29,2.64,2.64,0,0,0,1.14-.8,1.83,1.83,0,0,0,.4-1.16,1.49,1.49,0,0,0-.37-1,2.73,2.73,0,0,0-1.05-.71A10.24,10.24,0,0,0,45,11.34l-2-.5A8.36,8.36,0,0,1,39.4,9.08a4,4,0,0,1-1.33-3.22A4.77,4.77,0,0,1,39,3,5.94,5.94,0,0,1,41.42,1,8.66,8.66,0,0,1,45,.32a8.36,8.36,0,0,1,3.55.7A5.52,5.52,0,0,1,50.92,3a5.08,5.08,0,0,1,.88,2.87Zm6.56,13V.57h3.87V8.12h7.84V.57h3.86V18.86H66.36V11.3H58.52v7.56Zm21.91,0H72.42L78.73.57h5L90,18.86H85.87L81.29,4.75h-.14Zm-.26-7.19h9.79v3H76.3ZM107.51.57V18.86h-3.34l-8-11.51h-.14V18.86H92.22V.57h3.39l7.89,11.5h.16V.57Zm13.11,5.26a2.26,2.26,0,0,0-.91-1.68,3.67,3.67,0,0,0-2.21-.6,4.21,4.21,0,0,0-1.6.27,2.31,2.31,0,0,0-1,.72,1.81,1.81,0,0,0-.34,1.06,1.53,1.53,0,0,0,.21.86,2.1,2.1,0,0,0,.63.63,5,5,0,0,0,.93.45,8.82,8.82,0,0,0,1.13.33l1.64.39a12,12,0,0,1,2.19.71,6.89,6.89,0,0,1,1.74,1.1,4.76,4.76,0,0,1,1.13,1.54,5,5,0,0,1,.42,2,5,5,0,0,1-.86,2.91,5.48,5.48,0,0,1-2.43,1.91,9.84,9.84,0,0,1-3.81.67,10.16,10.16,0,0,1-3.86-.68,5.64,5.64,0,0,1-2.55-2,6,6,0,0,1-.95-3.31h3.74a2.77,2.77,0,0,0,.52,1.53,3,3,0,0,0,1.26.92,5.07,5.07,0,0,0,1.8.31,4.62,4.62,0,0,0,1.7-.29,2.64,2.64,0,0,0,1.14-.8,1.83,1.83,0,0,0,.4-1.16,1.49,1.49,0,0,0-.37-1,2.73,2.73,0,0,0-1-.71,10.24,10.24,0,0,0-1.69-.54l-2-.5a8.36,8.36,0,0,1-3.65-1.76,4.07,4.07,0,0,1-1.33-3.22,4.77,4.77,0,0,1,.88-2.9A5.91,5.91,0,0,1,114,1a8.58,8.58,0,0,1,3.57-.7,8.36,8.36,0,0,1,3.55.7A5.61,5.61,0,0,1,123.46,3a5.15,5.15,0,0,1,.87,2.87ZM138.48.57h3.86V12.45a6.22,6.22,0,0,1-3.61,5.84,9.93,9.93,0,0,1-7.95,0A6.37,6.37,0,0,1,128.13,16a6.44,6.44,0,0,1-.95-3.5V.57h3.87V12.12A3.75,3.75,0,0,0,131.5,14a3.29,3.29,0,0,0,1.31,1.28,4.38,4.38,0,0,0,3.91,0A3.18,3.18,0,0,0,138,14a3.66,3.66,0,0,0,.47-1.85Z" transform="translate(-0.02 -0.32)"/></g></g></g></svg>