<svg width="143" height="20" viewBox="0 0 143 20" fill="none" xmlns="http://www.w3.org/2000/svg">
<g clip-path="url(#clip0_5712_3459)">
<path d="M15.3125 0.571533V18.8572H11.9732L4.01786 7.34832H3.88392V18.8572H0.0178528V0.571533H3.41071L11.3036 12.0715H11.4643V0.571533H15.3125ZM35.3102 9.71436C35.3102 11.7084 34.9323 13.4049 34.1764 14.8037C33.4263 16.2025 32.4025 17.271 31.1049 18.0091C29.8132 18.7412 28.3608 19.1073 26.7478 19.1073C25.1227 19.1073 23.6645 18.7382 22.3727 18.0001C21.0811 17.262 20.0603 16.1935 19.3103 14.7947C18.5603 13.3959 18.1853 11.7025 18.1853 9.71436C18.1853 7.72035 18.5603 6.02392 19.3103 4.6251C20.0603 3.2263 21.0811 2.16082 22.3727 1.42868C23.6645 0.690581 25.1227 0.321533 26.7478 0.321533C28.3608 0.321533 29.8132 0.690581 31.1049 1.42868C32.4025 2.16082 33.4263 3.2263 34.1764 4.6251C34.9323 6.02392 35.3102 7.72035 35.3102 9.71436ZM31.3906 9.71436C31.3906 8.42273 31.1972 7.33344 30.8103 6.44654C30.4293 5.55963 29.8906 4.88701 29.1942 4.42867C28.4978 3.97034 27.6823 3.74117 26.7478 3.74117C25.8132 3.74117 24.9977 3.97034 24.3014 4.42867C23.6049 4.88701 23.0632 5.55963 22.6763 6.44654C22.2953 7.33344 22.1049 8.42273 22.1049 9.71436C22.1049 11.0061 22.2953 12.0953 22.6763 12.9822C23.0632 13.8691 23.6049 14.5418 24.3014 15.0001C24.9977 15.4584 25.8132 15.6876 26.7478 15.6876C27.6823 15.6876 28.4978 15.4584 29.1942 15.0001C29.8906 14.5418 30.4293 13.8691 30.8103 12.9822C31.1972 12.0953 31.3906 11.0061 31.3906 9.71436ZM48.0937 5.83046C48.0223 5.11023 47.7158 4.5507 47.1741 4.15189C46.6325 3.75308 45.8973 3.55368 44.9688 3.55368C44.3378 3.55368 43.8051 3.64296 43.3706 3.82154C42.936 3.99415 42.6027 4.23522 42.3705 4.54475C42.1444 4.85427 42.0312 5.20546 42.0312 5.59832C42.0194 5.9257 42.0878 6.21141 42.2366 6.45546C42.3914 6.69951 42.6027 6.91082 42.8705 7.08939C43.1384 7.26201 43.4479 7.4138 43.7991 7.54475C44.1503 7.66975 44.5253 7.77689 44.9241 7.86621L46.5669 8.25906C47.3646 8.43758 48.0967 8.67573 48.7634 8.97335C49.4301 9.2709 50.0074 9.63705 50.4955 10.0715C50.9837 10.506 51.3616 11.0179 51.6294 11.6072C51.9033 12.1965 52.0431 12.8721 52.0491 13.6341C52.0431 14.7531 51.7574 15.7233 51.1919 16.5447C50.6324 17.3602 49.8229 17.9941 48.7634 18.4466C47.7098 18.893 46.439 19.1161 44.9509 19.1161C43.4747 19.1161 42.189 18.89 41.0937 18.4376C40.0045 17.9853 39.1532 17.3156 38.5401 16.4287C37.933 15.5358 37.6146 14.4316 37.5848 13.1162H41.3259C41.3675 13.7293 41.5431 14.2412 41.8526 14.6519C42.1682 15.0567 42.5878 15.3632 43.1116 15.5715C43.6414 15.7739 44.2396 15.8751 44.9062 15.8751C45.561 15.8751 46.1294 15.7798 46.6116 15.5894C47.0997 15.3989 47.4776 15.1341 47.7455 14.7947C48.0134 14.4554 48.1473 14.0656 48.1473 13.6251C48.1473 13.2144 48.0253 12.8692 47.7812 12.5894C47.5432 12.3097 47.192 12.0715 46.7277 11.8751C46.2694 11.6786 45.7068 11.5001 45.0402 11.3394L43.0491 10.8394C41.5075 10.4644 40.2902 9.87811 39.3973 9.08045C38.5045 8.28287 38.061 7.20844 38.067 5.85724C38.061 4.7501 38.3557 3.78284 38.9509 2.95546C39.5521 2.12808 40.3765 1.48225 41.4241 1.01796C42.4717 0.553676 43.6622 0.321533 44.9955 0.321533C46.3527 0.321533 47.5372 0.553676 48.5491 1.01796C49.5669 1.48225 50.3586 2.12808 50.9241 2.95546C51.4896 3.78284 51.7812 4.74118 51.7991 5.83046H48.0937ZM54.6496 18.8572V0.571533H58.5156V8.11614H66.3639V0.571533H70.221V18.8572H66.3639V11.3037H58.5156V18.8572H54.6496ZM76.5602 18.8572H72.4174L78.7301 0.571533H83.7123L90.0154 18.8572H85.8731L81.2923 4.7501H81.1493L76.5602 18.8572ZM76.3013 11.6698H86.0868V14.6876H76.3013V11.6698ZM107.511 0.571533V18.8572H104.172L96.2162 7.34832H96.0826V18.8572H92.2161V0.571533H95.6096L103.502 12.0715H103.663V0.571533H107.511ZM120.625 5.83046C120.554 5.11023 120.247 4.5507 119.705 4.15189C119.164 3.75308 118.428 3.55368 117.5 3.55368C116.869 3.55368 116.336 3.64296 115.901 3.82154C115.467 3.99415 115.134 4.23522 114.902 4.54475C114.676 4.85427 114.563 5.20546 114.563 5.59832C114.551 5.9257 114.619 6.21141 114.768 6.45546C114.922 6.69951 115.134 6.91082 115.402 7.08939C115.67 7.26201 115.979 7.4138 116.331 7.54475C116.682 7.66975 117.056 7.77689 117.456 7.86621L119.099 8.25906C119.896 8.43758 120.628 8.67573 121.295 8.97335C121.961 9.2709 122.538 9.63705 123.027 10.0715C123.515 10.506 123.893 11.0179 124.161 11.6072C124.434 12.1965 124.574 12.8721 124.581 13.6341C124.574 14.7531 124.289 15.7233 123.723 16.5447C123.164 17.3602 122.354 17.9941 121.295 18.4466C120.241 18.893 118.97 19.1161 117.482 19.1161C116.006 19.1161 114.721 18.89 113.625 18.4376C112.535 17.9853 111.685 17.3156 111.072 16.4287C110.464 15.5358 110.146 14.4316 110.116 13.1162H113.857C113.899 13.7293 114.075 14.2412 114.384 14.6519C114.699 15.0567 115.119 15.3632 115.643 15.5715C116.173 15.7739 116.771 15.8751 117.438 15.8751C118.092 15.8751 118.661 15.7798 119.143 15.5894C119.631 15.3989 120.009 15.1341 120.277 14.7947C120.544 14.4554 120.679 14.0656 120.679 13.6251C120.679 13.2144 120.557 12.8692 120.312 12.5894C120.074 12.3097 119.723 12.0715 119.259 11.8751C118.801 11.6786 118.238 11.5001 117.571 11.3394L115.58 10.8394C114.039 10.4644 112.822 9.87811 111.929 9.08045C111.036 8.28287 110.592 7.20844 110.598 5.85724C110.592 4.7501 110.887 3.78284 111.482 2.95546C112.084 2.12808 112.908 1.48225 113.955 1.01796C115.003 0.553676 116.194 0.321533 117.527 0.321533C118.884 0.321533 120.068 0.553676 121.08 1.01796C122.098 1.48225 122.89 2.12808 123.455 2.95546C124.021 3.78284 124.313 4.74118 124.331 5.83046H120.625ZM138.475 0.571533H142.342V12.4465C142.342 13.7799 142.023 14.9465 141.386 15.9466C140.755 16.9465 139.871 17.7263 138.734 18.2858C137.597 18.8394 136.273 19.1161 134.761 19.1161C133.243 19.1161 131.916 18.8394 130.779 18.2858C129.642 17.7263 128.758 16.9465 128.127 15.9466C127.496 14.9465 127.18 13.7799 127.18 12.4465V0.571533H131.047V12.1162C131.047 12.8126 131.199 13.4317 131.502 13.9733C131.811 14.515 132.246 14.9406 132.806 15.2501C133.366 15.5596 134.017 15.7144 134.761 15.7144C135.511 15.7144 136.163 15.5596 136.717 15.2501C137.276 14.9406 137.707 14.515 138.011 13.9733C138.321 13.4317 138.475 12.8126 138.475 12.1162V0.571533Z" fill="#FF1616"/>
</g>
<defs>
<clipPath id="clip0_5712_3459">
<rect width="143" height="19.6429" fill="white"/>
</clipPath>
</defs>
</svg>
